<svg width="32" height="32" viewBox="0 0 32 32" fill="none" xmlns="http://www.w3.org/2000/svg">
<circle opacity="0.05" cx="16" cy="16" r="16" fill="black"/>
<g clip-path="url(#clip0_31_15843)">
<path d="M10.8615 15.5609L18.262 8.18093C18.5044 7.93928 18.897 7.93968 19.1391 8.18218C19.3809 8.42465 19.3803 8.81743 19.1378 9.05927L12.1778 16L19.1381 22.9408C19.3805 23.1826 19.3812 23.5752 19.1393 23.8177C19.018 23.9392 18.859 24 18.7 24C18.5415 24 18.3831 23.9396 18.262 23.8189L10.8615 16.4391C10.7447 16.3229 10.6792 16.1648 10.6792 16C10.6792 15.8353 10.7449 15.6773 10.8615 15.5609Z" fill="black"/>
</g>
<defs>
<clipPath id="clip0_31_15843">
<rect width="16" height="16" fill="white" transform="matrix(-1 -8.74228e-08 -8.74228e-08 1 23 8)"/>
</clipPath>
</defs>
</svg>
