<svg width="16" height="16" viewBox="0 0 16 16" fill="none" xmlns="http://www.w3.org/2000/svg">
<g opacity="0.5" clip-path="url(#clip0_31_15874)">
<path d="M8.43907 12.1382L15.8191 4.73778C16.0607 4.49531 16.0603 4.10275 15.8178 3.86069C15.5753 3.61881 15.1826 3.61944 14.9407 3.86194L7.99997 10.8219L1.05926 3.86168C0.817382 3.61922 0.424852 3.61859 0.182353 3.86043C0.060791 3.98178 9.51658e-06 4.14075 9.50963e-06 4.29971C9.5027e-06 4.45828 0.0603847 4.61662 0.181103 4.73774L7.56091 12.1382C7.6771 12.255 7.83523 12.3206 7.99997 12.3206C8.16472 12.3206 8.32266 12.2548 8.43907 12.1382Z" fill="#232323"/>
</g>
<defs>
<clipPath id="clip0_31_15874">
<rect width="16" height="16" fill="white" transform="translate(16) rotate(90)"/>
</clipPath>
</defs>
</svg>
