<svg width="50" height="50" viewBox="0 0 50 50" fill="none" xmlns="http://www.w3.org/2000/svg">
<circle cx="25" cy="25" r="24" fill="#0065B1" stroke="#FBFCFC" stroke-width="2"/>
<path d="M30.6485 27.8661C31.1172 28.3543 31.1172 29.1457 30.6485 29.6339L25.8485 34.6339C25.3799 35.122 24.6201 35.122 24.1515 34.6339L19.3515 29.6339C18.8829 29.1457 18.8829 28.3542 19.3515 27.8661C19.8201 27.378 20.5799 27.378 21.0485 27.8661L23.8 30.7322L23.8 16.25C23.8 15.5596 24.3373 15 25 15C25.6627 15 26.2 15.5596 26.2 16.25L26.2 30.7323L28.9515 27.8661C29.4201 27.378 30.1799 27.378 30.6485 27.8661Z" fill="white"/>
</svg>
