<svg width="26" height="26" viewBox="0 0 26 26" fill="none" xmlns="http://www.w3.org/2000/svg">
<path fill-rule="evenodd" clip-rule="evenodd" d="M13.4865 9.15639C13.1666 9.08133 12.8325 9.08133 12.5126 9.15639L8.93761 9.99484C8.05014 10.203 7.36621 10.9731 7.36621 11.9232V14.6151C7.36621 17.0133 8.76596 19.1875 10.9607 20.3028L11.0364 20.3413C12.2701 20.9682 13.729 20.9682 14.9627 20.3413L15.0384 20.3028C17.2331 19.1875 18.6329 17.0133 18.6329 14.6151V11.9232C18.6329 10.9731 17.9489 10.203 17.0615 9.99484L13.4865 9.15639ZM12.9084 10.8439C12.968 10.8299 13.0311 10.8299 13.0907 10.8439L16.6657 11.6824C16.8392 11.7231 16.8995 11.8473 16.8995 11.9232V14.6151C16.8995 16.3197 15.9037 17.9188 14.2531 18.7576L14.1774 18.7961C13.4372 19.1722 12.5619 19.1722 11.8217 18.7961L11.746 18.7576C10.0953 17.9188 9.09954 16.3197 9.09954 14.6151V11.9232C9.09954 11.8473 9.15991 11.7231 9.33341 11.6824L12.9084 10.8439Z" fill="black"/>
<path fill-rule="evenodd" clip-rule="evenodd" d="M16.7438 1.27847C14.5456 -0.426157 11.4544 -0.426157 9.25622 1.27847L2.32289 6.65513C0.858529 7.79073 0 9.53026 0 11.3756V20.0011C0 23.3249 2.72689 26 6.06667 26H19.9333C23.2731 26 26 23.3249 26 20.0011V11.3756C26 9.53026 25.1415 7.79073 23.6771 6.65513L16.7438 1.27847ZM10.3184 2.6482C11.8914 1.42838 14.1086 1.42837 15.6816 2.64821L22.6149 8.02486C23.66 8.83528 24.2667 10.0711 24.2667 11.3756V20.0011C24.2667 22.3462 22.3373 24.2667 19.9333 24.2667H6.06667C3.66271 24.2667 1.73333 22.3462 1.73333 20.0011V11.3756C1.73333 10.0711 2.34004 8.83528 3.3851 8.02486L10.3184 2.6482Z" fill="black"/>
</svg>
