<svg width="26" height="26" viewBox="0 0 26 26" fill="none" xmlns="http://www.w3.org/2000/svg">
<path d="M22.6744 12.093H20.3284C20.8363 10.8233 21.1628 9.50512 21.1628 8.16279C21.1628 3.66419 17.4986 0 13 0C8.5014 0 4.83721 3.66419 4.83721 8.16279C4.83721 9.50512 5.16372 10.8233 5.67163 12.093H3.32558C1.48744 12.093 0 13.5805 0 15.4186V22.6744C0 24.5126 1.48744 26 3.32558 26H22.6744C24.5126 26 26 24.5126 26 22.6744V15.4186C26 13.5805 24.5126 12.093 22.6744 12.093ZM13 1.81395C16.4949 1.81395 19.3488 4.65581 19.3488 8.16279C19.3488 12.746 14.6688 17.4986 13 19.0344C11.3312 17.4865 6.65116 12.734 6.65116 8.16279C6.65116 4.65581 9.50512 1.81395 13 1.81395ZM24.186 22.6744C24.186 23.5088 23.5088 24.186 22.6744 24.186H3.32558C2.49116 24.186 1.81395 23.5088 1.81395 22.6744V15.4186C1.81395 14.5842 2.49116 13.907 3.32558 13.907H6.53023C8.69488 17.813 12.2019 20.7758 12.4195 20.9572C12.5888 21.1023 12.7944 21.1628 13 21.1628C13.2056 21.1628 13.4112 21.0902 13.5805 20.9572C13.7981 20.7758 17.3051 17.8251 19.4698 13.907H22.6744C23.5088 13.907 24.186 14.5842 24.186 15.4186V22.6744ZM16.3256 8.16279C16.3256 6.32465 14.8381 4.83721 13 4.83721C11.1619 4.83721 9.67442 6.32465 9.67442 8.16279C9.67442 10.0009 11.1619 11.4884 13 11.4884C14.8381 11.4884 16.3256 10.0009 16.3256 8.16279ZM11.4884 8.16279C11.4884 7.32837 12.1656 6.65116 13 6.65116C13.8344 6.65116 14.5116 7.32837 14.5116 8.16279C14.5116 8.99721 13.8344 9.67442 13 9.67442C12.1656 9.67442 11.4884 8.99721 11.4884 8.16279Z" fill="black"/>
</svg>
