<svg width="28" height="28" viewBox="0 0 28 28" fill="none" xmlns="http://www.w3.org/2000/svg">
<g clip-path="url(#clip0_401_19)">
<path d="M16.4259 2.15381H11.935V2.18902C11.8315 2.18637 11.7285 2.18107 11.6242 2.18107C5.21473 2.18107 0 7.48944 0 14.0136C0 20.5377 5.21473 25.8461 11.6242 25.8461C12.2061 25.8461 12.7774 25.8011 13.3367 25.7166H16.4259C22.8078 25.7166 28 20.4317 28 13.9356C28 7.43946 22.8078 2.15381 16.4259 2.15381ZM26.5878 11.6449H23.014C22.8502 10.8286 22.6021 10.0437 22.282 9.2974H25.7917C26.1429 10.0361 26.4108 10.8233 26.5878 11.6449ZM25.162 8.16151H21.7204C21.2405 7.30732 20.6598 6.51978 19.9936 5.81553H23.1446C23.924 6.491 24.6047 7.28158 25.162 8.16151ZM21.557 4.67926H18.7552C18.0719 4.13707 17.3282 3.67059 16.5356 3.29272C18.3597 3.31203 20.0713 3.8141 21.557 4.67926ZM11.6239 24.7102C5.85762 24.7102 1.16639 19.9119 1.16639 14.0136C1.16639 8.11532 5.85762 3.31696 11.6239 3.31696C17.3901 3.31696 22.0813 8.11532 22.0813 14.0136C22.0813 19.9119 17.3901 24.7102 11.6239 24.7102ZM16.8662 24.5694C17.5915 24.1945 18.2729 23.7459 18.9011 23.2309H21.4898C20.1102 24.02 18.539 24.4974 16.8662 24.5694ZM23.1007 22.0947H20.1036C20.7543 21.3874 21.3214 20.6002 21.7877 19.7475H25.1387C24.5743 20.629 23.8871 21.4203 23.1007 22.0947ZM25.7726 18.6117H22.3345C22.6449 17.8654 22.8798 17.079 23.0346 16.2642H26.5793C26.3988 17.0862 26.1269 17.873 25.7726 18.6117ZM23.1948 15.1283C23.2286 14.761 23.2481 14.3896 23.2481 14.0136C23.2481 13.5975 23.2263 13.1863 23.1847 12.7808H26.7706C26.8107 13.1602 26.8328 13.5452 26.8328 13.9356C26.8328 14.3388 26.8087 14.7364 26.7659 15.1283H23.1948Z" fill="black"/>
<path d="M12.363 6.98022H8.85291H8.85214H8.85136C8.34109 6.98022 7.92766 7.38271 7.92766 7.87947V13.8145H6.82116C6.31089 13.8145 5.89746 14.217 5.89746 14.7137C5.89746 15.2105 6.31089 15.613 6.82116 15.613H7.92766V16.692H7.00551C6.49524 16.692 6.08181 17.0945 6.08181 17.5913C6.08181 18.0881 6.49524 18.4905 7.00551 18.4905H7.92766V20.4692C7.92766 20.966 8.34109 21.3685 8.85136 21.3685C9.36163 21.3685 9.77506 20.966 9.77506 20.4692V18.4905H13.2871C13.7973 18.4905 14.2108 18.0881 14.2108 17.5913C14.2108 17.0945 13.7973 16.692 13.2871 16.692H9.77506V15.613H12.3634C13.5441 15.613 14.6565 15.1631 15.4954 14.3461C16.3347 13.5294 16.7971 12.4457 16.7971 11.2962C16.7967 8.91653 14.8078 6.98022 12.363 6.98022ZM14.189 13.0743C13.6986 13.5517 13.0502 13.8145 12.363 13.8145H9.77467V8.77871H12.363C13.7892 8.77871 14.9493 9.90816 14.9493 11.2962C14.9493 11.9656 14.679 12.5968 14.189 13.0743Z" fill="black"/>
</g>
<defs>
<clipPath id="clip0_401_19">
<rect width="28" height="28" fill="white"/>
</clipPath>
</defs>
</svg>
